<svg width="23" height="19" viewBox="0 0 23 19" fill="none" xmlns="http://www.w3.org/2000/svg">
<path d="M2.15625 2.3125C1.96563 2.3125 1.78281 2.38823 1.64802 2.52302C1.51323 2.65781 1.4375 2.84063 1.4375 3.03125V15.9688C1.4375 16.1594 1.51323 16.3422 1.64802 16.477C1.78281 16.6118 1.96563 16.6875 2.15625 16.6875H20.8438C21.0344 16.6875 21.2172 16.6118 21.352 16.477C21.4868 16.3422 21.5625 16.1594 21.5625 15.9688V3.03125C21.5625 2.84063 21.4868 2.65781 21.352 2.52302C21.2172 2.38823 21.0344 2.3125 20.8438 2.3125H2.15625ZM20.8438 0.875C21.4156 0.875 21.9641 1.10218 22.3684 1.50655C22.7728 1.91093 23 2.45938 23 3.03125V15.9688C23 16.5406 22.7728 17.0891 22.3684 17.4935C21.9641 17.8978 21.4156 18.125 20.8438 18.125H2.15625C1.58438 18.125 1.03593 17.8978 0.63155 17.4935C0.227175 17.0891 0 16.5406 0 15.9688V3.03125C0 2.45938 0.227175 1.91093 0.63155 1.50655C1.03593 1.10218 1.58438 0.875 2.15625 0.875H20.8438Z" fill="#4D4D4D"/>
<path d="M15.8125 9.5C15.8125 9.30938 15.7368 9.12656 15.602 8.99177C15.4672 8.85698 15.2844 8.78125 15.0938 8.78125H5.03125C4.84063 8.78125 4.65781 8.85698 4.52302 8.99177C4.38822 9.12656 4.3125 9.30938 4.3125 9.5C4.3125 9.69062 4.38822 9.87344 4.52302 10.0082C4.65781 10.143 4.84063 10.2188 5.03125 10.2188H15.0938C15.2844 10.2188 15.4672 10.143 15.602 10.0082C15.7368 9.87344 15.8125 9.69062 15.8125 9.5ZM15.8125 5.90625C15.8125 5.71563 15.7368 5.53281 15.602 5.39802C15.4672 5.26323 15.2844 5.1875 15.0938 5.1875H5.03125C4.84063 5.1875 4.65781 5.26323 4.52302 5.39802C4.38822 5.53281 4.3125 5.71563 4.3125 5.90625C4.3125 6.09687 4.38822 6.27969 4.52302 6.41448C4.65781 6.54927 4.84063 6.625 5.03125 6.625H15.0938C15.2844 6.625 15.4672 6.54927 15.602 6.41448C15.7368 6.27969 15.8125 6.09687 15.8125 5.90625ZM15.8125 13.0938C15.8125 12.9031 15.7368 12.7203 15.602 12.5855C15.4672 12.4507 15.2844 12.375 15.0938 12.375H5.03125C4.84063 12.375 4.65781 12.4507 4.52302 12.5855C4.38822 12.7203 4.3125 12.9031 4.3125 13.0938C4.3125 13.2844 4.38822 13.4672 4.52302 13.602C4.65781 13.7368 4.84063 13.8125 5.03125 13.8125H15.0938C15.2844 13.8125 15.4672 13.7368 15.602 13.602C15.7368 13.4672 15.8125 13.2844 15.8125 13.0938ZM17.25 5.90625C17.25 6.09687 17.3257 6.27969 17.4605 6.41448C17.5953 6.54927 17.7781 6.625 17.9688 6.625C18.1594 6.625 18.3422 6.54927 18.477 6.41448C18.6118 6.27969 18.6875 6.09687 18.6875 5.90625C18.6875 5.71563 18.6118 5.53281 18.477 5.39802C18.3422 5.26323 18.1594 5.1875 17.9688 5.1875C17.7781 5.1875 17.5953 5.26323 17.4605 5.39802C17.3257 5.53281 17.25 5.71563 17.25 5.90625ZM17.25 9.5C17.25 9.69062 17.3257 9.87344 17.4605 10.0082C17.5953 10.143 17.7781 10.2188 17.9688 10.2188C18.1594 10.2188 18.3422 10.143 18.477 10.0082C18.6118 9.87344 18.6875 9.69062 18.6875 9.5C18.6875 9.30938 18.6118 9.12656 18.477 8.99177C18.3422 8.85698 18.1594 8.78125 17.9688 8.78125C17.7781 8.78125 17.5953 8.85698 17.4605 8.99177C17.3257 9.12656 17.25 9.30938 17.25 9.5ZM17.25 13.0938C17.25 13.2844 17.3257 13.4672 17.4605 13.602C17.5953 13.7368 17.7781 13.8125 17.9688 13.8125C18.1594 13.8125 18.3422 13.7368 18.477 13.602C18.6118 13.4672 18.6875 13.2844 18.6875 13.0938C18.6875 12.9031 18.6118 12.7203 18.477 12.5855C18.3422 12.4507 18.1594 12.375 17.9688 12.375C17.7781 12.375 17.5953 12.4507 17.4605 12.5855C17.3257 12.7203 17.25 12.9031 17.25 13.0938Z" fill="#4D4D4D"/>
</svg>
