<svg width="36" height="36" viewBox="0 0 36 36" fill="none" xmlns="http://www.w3.org/2000/svg">
<path d="M19.63 23.84C17.51 26.68 14.87 33.91 14.87 33.91C14.87 33.91 12 33.13 12 30.71V21H2.23C2.16022 17.6955 2.64702 14.4029 3.67 11.26C5.61 5.68 7.8 4 7.8 4H14.65C16.9 4 21 5.9 24 7.65V20.45C22.2747 21.1831 20.769 22.3512 19.63 23.84Z" fill="white"/>
<path d="M27 23C26.7348 23 26.4804 22.8946 26.2929 22.7071C26.1054 22.5196 26 22.2652 26 22V6C26 5.73478 26.1054 5.48043 26.2929 5.29289C26.4804 5.10536 26.7348 5 27 5H34V23H27Z" fill="white"/>
</svg>
