<svg width="27" height="27" viewBox="0 0 27 27" fill="none" xmlns="http://www.w3.org/2000/svg">
<g clip-path="url(#clip0_22_75)">
<path d="M14.422 17.5151C12.8645 19.6016 10.9249 24.9135 10.9249 24.9135C10.9249 24.9135 8.8163 24.3404 8.8163 22.5625V15.4286H1.63834C1.58708 13.0008 1.94473 10.5817 2.6963 8.27266C4.12161 4.17307 5.73059 2.93878 5.73059 2.93878H10.7632C12.4163 2.93878 15.4285 4.3347 17.6326 5.62041V15.0245C16.3651 15.5631 15.2589 16.4213 14.422 17.5151Z" fill="#555555"/>
<path d="M19.8368 16.898C19.6419 16.898 19.455 16.8205 19.3173 16.6828C19.1795 16.545 19.1021 16.3581 19.1021 16.1633V4.40816C19.1021 4.2133 19.1795 4.02643 19.3173 3.88865C19.455 3.75087 19.6419 3.67346 19.8368 3.67346H24.9796V16.898H19.8368Z" fill="#555555"/>
</g>
<defs>
<clipPath id="clip0_22_75">
<rect width="26.449" height="26.449" fill="white"/>
</clipPath>
</defs>
</svg>
