<svg width="27" height="27" viewBox="0 0 27 27" fill="none" xmlns="http://www.w3.org/2000/svg">
<g clip-path="url(#clip0_22_70)">
<path d="M12.0269 8.90449C13.5845 6.81796 15.5167 1.46939 15.5167 1.46939C15.5167 1.46939 17.6326 2.07919 17.6326 3.85715V11.0204H24.8106C24.8619 13.4482 24.5042 15.8673 23.7526 18.1763C22.3273 22.2392 20.7184 23.5102 20.7184 23.5102H15.6784C14.0326 23.5102 11.0204 22.0849 8.81632 20.7992V11.3951C10.0839 10.8565 11.1901 9.99834 12.0269 8.90449Z" fill="#555555"/>
<path d="M6.61223 9.55103C6.80708 9.55103 6.99396 9.62843 7.13174 9.76621C7.26952 9.90399 7.34692 10.0909 7.34692 10.2857V22.0408C7.34692 22.2357 7.26952 22.4225 7.13174 22.5603C6.99396 22.6981 6.80708 22.7755 6.61223 22.7755H1.46937V9.55103H6.61223Z" fill="#555555"/>
</g>
<defs>
<clipPath id="clip0_22_70">
<rect width="26.449" height="26.449" fill="white"/>
</clipPath>
</defs>
</svg>
